<svg width="141" height="21" viewBox="0 0 141 21" fill="none" xmlns="http://www.w3.org/2000/svg">
<path d="M7.28 20.26C6.04933 20.26 4.94867 19.9567 3.978 19.35C3.00733 18.7433 2.236 17.9113 1.664 16.854C1.10933 15.7967 0.832 14.592 0.832 13.24C0.832 11.8707 1.118 10.6573 1.69 9.6C2.27933 8.54267 3.05933 7.71067 4.03 7.104C5.00067 6.49733 6.084 6.194 7.28 6.194C7.97333 6.194 8.632 6.298 9.256 6.506C9.88 6.714 10.4433 7.00867 10.946 7.39C11.4487 7.754 11.882 8.18733 12.246 8.69C12.61 9.19267 12.87 9.73867 13.026 10.328L12.584 9.886V0.76H13.884V20H12.636L12.532 16.49L13.026 16.126C12.87 16.698 12.61 17.2353 12.246 17.738C11.882 18.2407 11.4487 18.6827 10.946 19.064C10.4433 19.4453 9.88 19.74 9.256 19.948C8.632 20.156 7.97333 20.26 7.28 20.26ZM7.462 18.96C8.45 18.96 9.334 18.7173 10.114 18.232C10.9113 17.7293 11.5353 17.0533 11.986 16.204C12.454 15.3373 12.688 14.3407 12.688 13.214C12.688 12.1047 12.4627 11.1253 12.012 10.276C11.5613 9.40933 10.9373 8.73333 10.14 8.248C9.36 7.74533 8.46733 7.494 7.462 7.494C6.43933 7.494 5.52933 7.74533 4.732 8.248C3.952 8.73333 3.33667 9.40933 2.886 10.276C2.43533 11.1253 2.21 12.1047 2.21 13.214C2.21 14.306 2.42667 15.2853 2.86 16.152C3.31067 17.0187 3.926 17.7033 4.706 18.206C5.50333 18.7087 6.422 18.96 7.462 18.96ZM17.7418 20V6.48H18.9898L19.1198 9.496H18.9378C19.1284 8.924 19.4231 8.38667 19.8218 7.884C20.2204 7.38133 20.7058 6.974 21.2778 6.662C21.8671 6.35 22.5431 6.194 23.3058 6.194C23.6004 6.194 23.8691 6.22 24.1118 6.272C24.3718 6.30667 24.6058 6.35 24.8138 6.402L24.4238 7.91C24.1811 7.806 23.9471 7.73667 23.7218 7.702C23.4964 7.66733 23.2971 7.65 23.1238 7.65C22.4304 7.65 21.8238 7.77133 21.3038 8.014C20.8011 8.25667 20.3764 8.59467 20.0298 9.028C19.7004 9.444 19.4491 9.92067 19.2757 10.458C19.1198 10.9953 19.0418 11.5587 19.0418 12.148V20H17.7418ZM31.7627 20.26C30.4627 20.26 29.3013 19.9653 28.2787 19.376C27.2733 18.7867 26.4847 17.9633 25.9127 16.906C25.3407 15.8487 25.0547 14.618 25.0547 13.214C25.0547 12.1913 25.2107 11.2553 25.5227 10.406C25.852 9.55667 26.3027 8.82 26.8747 8.196C27.4467 7.55467 28.1313 7.06067 28.9287 6.714C29.7433 6.36733 30.6273 6.194 31.5807 6.194C32.5167 6.194 33.3573 6.35 34.1027 6.662C34.8653 6.974 35.5067 7.42467 36.0267 8.014C36.5467 8.586 36.9367 9.27067 37.1967 10.068C37.4567 10.848 37.5693 11.7147 37.5347 12.668L37.5087 13.37H26.0167V12.174H36.8067L36.2347 12.642V12.018C36.2347 11.3247 36.0613 10.6313 35.7147 9.938C35.3853 9.24467 34.874 8.664 34.1807 8.196C33.4873 7.728 32.612 7.494 31.5547 7.494C30.5667 7.494 29.6827 7.71067 28.9027 8.144C28.14 8.57733 27.5333 9.21 27.0827 10.042C26.6493 10.874 26.4327 11.9053 26.4327 13.136C26.4327 14.3147 26.6493 15.346 27.0827 16.23C27.516 17.0967 28.14 17.7727 28.9547 18.258C29.7867 18.726 30.8007 18.96 31.9967 18.96C32.638 18.96 33.2967 18.856 33.9727 18.648C34.6487 18.44 35.4113 17.9893 36.2607 17.296L36.9367 18.258C36.5553 18.622 36.1047 18.96 35.5847 19.272C35.0647 19.5667 34.484 19.8093 33.8427 20C33.2013 20.1733 32.508 20.26 31.7627 20.26ZM45.5437 20.26C44.313 20.26 43.2123 19.9567 42.2417 19.35C41.271 18.7433 40.4997 17.9113 39.9277 16.854C39.373 15.7967 39.0957 14.592 39.0957 13.24C39.0957 11.8707 39.3817 10.6573 39.9537 9.6C40.543 8.54267 41.323 7.71067 42.2937 7.104C43.2643 6.49733 44.3477 6.194 45.5437 6.194C46.237 6.194 46.8957 6.298 47.5197 6.506C48.1437 6.714 48.707 7.00867 49.2097 7.39C49.7123 7.754 50.1457 8.18733 50.5097 8.69C50.8737 9.19267 51.1337 9.73867 51.2897 10.328L50.7697 9.99L50.8997 6.48H52.1477V20H50.8477V16.62L51.2897 16.126C51.1337 16.698 50.8737 17.2353 50.5097 17.738C50.1457 18.2407 49.7123 18.6827 49.2097 19.064C48.707 19.4453 48.1437 19.74 47.5197 19.948C46.8957 20.156 46.237 20.26 45.5437 20.26ZM45.7257 18.96C46.7137 18.96 47.5977 18.7173 48.3777 18.232C49.175 17.7293 49.799 17.0533 50.2497 16.204C50.7177 15.3373 50.9517 14.3407 50.9517 13.214C50.9517 12.1047 50.7263 11.1253 50.2757 10.276C49.825 9.40933 49.201 8.73333 48.4037 8.248C47.6237 7.74533 46.731 7.494 45.7257 7.494C44.703 7.494 43.793 7.74533 42.9957 8.248C42.2157 8.73333 41.6003 9.40933 41.1497 10.276C40.699 11.1253 40.4737 12.1047 40.4737 13.214C40.4737 14.306 40.6903 15.2853 41.1237 16.152C41.5743 17.0187 42.1897 17.7033 42.9697 18.206C43.767 18.7087 44.6857 18.96 45.7257 18.96ZM55.9546 20V6.48H57.2026L57.3326 9.756L57.0206 9.704C57.1766 9.14933 57.4193 8.65533 57.7486 8.222C58.0953 7.78867 58.494 7.42467 58.9446 7.13C59.4126 6.818 59.924 6.584 60.4786 6.428C61.0333 6.272 61.6226 6.194 62.2466 6.194C62.9053 6.194 63.5033 6.30667 64.0406 6.532C64.5953 6.75733 65.072 7.16467 65.4706 7.754C65.8693 8.34333 66.1813 9.17533 66.4066 10.25L65.8866 9.886L66.0686 9.444C66.242 9.028 66.4933 8.62933 66.8226 8.248C67.152 7.84933 67.542 7.50267 67.9926 7.208C68.4433 6.896 68.946 6.65333 69.5006 6.48C70.0726 6.28933 70.6793 6.194 71.3206 6.194C72.222 6.194 72.9933 6.39333 73.6346 6.792C74.276 7.19067 74.7613 7.806 75.0906 8.638C75.4373 9.47 75.6106 10.5273 75.6106 11.81V20H74.3106V11.862C74.3106 10.8567 74.1806 10.0333 73.9206 9.392C73.678 8.73333 73.3053 8.248 72.8026 7.936C72.3173 7.60667 71.7106 7.442 70.9826 7.442C70.3066 7.442 69.6913 7.56333 69.1366 7.806C68.582 8.03133 68.1053 8.34333 67.7066 8.742C67.308 9.14067 66.996 9.6 66.7706 10.12C66.5453 10.6227 66.4326 11.16 66.4326 11.732V20H65.1326V11.862C65.1326 10.8567 65.0026 10.0333 64.7426 9.392C64.5 8.73333 64.1273 8.248 63.6246 7.936C63.122 7.60667 62.5066 7.442 61.7786 7.442C61.12 7.442 60.5133 7.56333 59.9586 7.806C59.404 8.03133 58.9273 8.34333 58.5286 8.742C58.13 9.14067 57.818 9.6 57.5926 10.12C57.3673 10.6227 57.2546 11.16 57.2546 11.732V20H55.9546Z" fill="#DEDEDE"/>
<path d="M83.6542 20V5.31H78.3502V1.8H93.0142V5.31H87.5542V20H83.6542ZM99.5213 20.26C98.1173 20.26 96.8606 19.9567 95.7513 19.35C94.6593 18.726 93.7926 17.8767 93.1513 16.802C92.5273 15.7273 92.2153 14.4967 92.2153 13.11C92.2153 11.7233 92.5273 10.5013 93.1513 9.444C93.7926 8.36933 94.6593 7.52 95.7513 6.896C96.8606 6.272 98.1173 5.96 99.5213 5.96C100.908 5.96 102.147 6.272 103.239 6.896C104.349 7.52 105.215 8.36933 105.839 9.444C106.463 10.5013 106.775 11.7233 106.775 13.11C106.775 14.4967 106.463 15.7273 105.839 16.802C105.215 17.8767 104.349 18.726 103.239 19.35C102.147 19.9567 100.908 20.26 99.5213 20.26ZM99.5213 17.036C100.197 17.036 100.804 16.8713 101.341 16.542C101.879 16.1953 102.295 15.7273 102.589 15.138C102.901 14.5313 103.057 13.8553 103.057 13.11C103.057 12.3473 102.901 11.6713 102.589 11.082C102.295 10.4753 101.879 10.0073 101.341 9.678C100.804 9.33133 100.197 9.158 99.5213 9.158C98.828 9.158 98.2126 9.33133 97.6753 9.678C97.138 10.0247 96.7133 10.4927 96.4013 11.082C96.0893 11.6713 95.942 12.3473 95.9593 13.11C95.942 13.8553 96.0893 14.5313 96.4013 15.138C96.7133 15.7273 97.138 16.1953 97.6753 16.542C98.2126 16.8713 98.828 17.036 99.5213 17.036ZM114.935 20.26C113.739 20.26 112.664 19.9567 111.711 19.35C110.758 18.726 110.004 17.8853 109.449 16.828C108.912 15.7533 108.643 14.514 108.643 13.11C108.643 11.7407 108.912 10.5187 109.449 9.444C110.004 8.36933 110.749 7.52 111.685 6.896C112.638 6.272 113.722 5.96 114.935 5.96C115.576 5.96 116.192 6.064 116.781 6.272C117.388 6.46267 117.925 6.73133 118.393 7.078C118.878 7.42467 119.268 7.81467 119.563 8.248C119.858 8.664 120.022 9.106 120.057 9.574L119.121 9.73V0.76H122.813V20H119.329L119.173 16.828L119.901 16.906C119.866 17.3393 119.71 17.7553 119.433 18.154C119.156 18.5527 118.783 18.9167 118.315 19.246C117.864 19.558 117.344 19.8093 116.755 20C116.183 20.1733 115.576 20.26 114.935 20.26ZM115.767 17.192C116.46 17.192 117.067 17.0187 117.587 16.672C118.107 16.3253 118.514 15.8487 118.809 15.242C119.104 14.6353 119.251 13.9247 119.251 13.11C119.251 12.3127 119.104 11.6107 118.809 11.004C118.514 10.38 118.107 9.90333 117.587 9.574C117.067 9.22733 116.46 9.054 115.767 9.054C115.074 9.054 114.467 9.22733 113.947 9.574C113.444 9.90333 113.046 10.38 112.751 11.004C112.474 11.6107 112.335 12.3127 112.335 13.11C112.335 13.9247 112.474 14.6353 112.751 15.242C113.046 15.8487 113.444 16.3253 113.947 16.672C114.467 17.0187 115.074 17.192 115.767 17.192ZM132.808 20.26C131.404 20.26 130.148 19.9567 129.038 19.35C127.946 18.726 127.08 17.8767 126.438 16.802C125.814 15.7273 125.502 14.4967 125.502 13.11C125.502 11.7233 125.814 10.5013 126.438 9.444C127.08 8.36933 127.946 7.52 129.038 6.896C130.148 6.272 131.404 5.96 132.808 5.96C134.195 5.96 135.434 6.272 136.526 6.896C137.636 7.52 138.502 8.36933 139.126 9.444C139.75 10.5013 140.062 11.7233 140.062 13.11C140.062 14.4967 139.75 15.7273 139.126 16.802C138.502 17.8767 137.636 18.726 136.526 19.35C135.434 19.9567 134.195 20.26 132.808 20.26ZM132.808 17.036C133.484 17.036 134.091 16.8713 134.628 16.542C135.166 16.1953 135.582 15.7273 135.876 15.138C136.188 14.5313 136.344 13.8553 136.344 13.11C136.344 12.3473 136.188 11.6713 135.876 11.082C135.582 10.4753 135.166 10.0073 134.628 9.678C134.091 9.33133 133.484 9.158 132.808 9.158C132.115 9.158 131.5 9.33133 130.962 9.678C130.425 10.0247 130 10.4927 129.688 11.082C129.376 11.6713 129.229 12.3473 129.246 13.11C129.229 13.8553 129.376 14.5313 129.688 15.138C130 15.7273 130.425 16.1953 130.962 16.542C131.5 16.8713 132.115 17.036 132.808 17.036Z" fill="url(#paint0_linear_101_268)"/>
<defs>
<linearGradient id="paint0_linear_101_268" x1="141" y1="10" x2="81.5" y2="10" gradientUnits="userSpaceOnUse">
<stop stop-color="#11EEDD"/>
<stop offset="1" stop-color="#29B0A6"/>
</linearGradient>
</defs>
</svg>
